<svg width="42" height="42" viewBox="0 0 42 42" fill="none" xmlns="http://www.w3.org/2000/svg">
<path d="M38.5 3.93838H32.8125V1.31338C32.8127 0.965279 32.6747 0.631347 32.4287 0.385041C32.1827 0.138736 31.849 0.000232376 31.5009 3.11645e-07C31.1528 -0.000231753 30.8188 0.137827 30.5725 0.383804C30.3262 0.629781 30.1877 0.963529 30.1875 1.31163V3.93838H22.3125V1.31338C22.3126 1.14102 22.2788 0.970321 22.2129 0.811037C22.1471 0.651753 22.0505 0.507 21.9287 0.385041C21.8069 0.263083 21.6623 0.166309 21.5031 0.100243C21.3439 0.0341778 21.1732 0.000115199 21.0009 2.92088e-07C20.6528 -0.000231772 20.3188 0.137827 20.0725 0.383804C19.8262 0.629781 19.6877 0.963529 19.6875 1.31163V3.93838H11.8125V1.31338C11.8126 1.14102 11.7788 0.970321 11.7129 0.811037C11.6471 0.651753 11.5505 0.507 11.4287 0.385041C11.3069 0.263083 11.1623 0.166309 11.0031 0.100243C10.8439 0.0341778 10.6732 0.000115199 10.5009 2.92088e-07C10.1528 -0.000231772 9.81885 0.137827 9.57254 0.383804C9.32624 0.629781 9.18773 0.963529 9.1875 1.31163V3.93838H3.5C2.57205 3.93838 1.68207 4.30688 1.02574 4.96288C0.369418 5.61888 0.000463977 6.50867 0 7.43663V38.4991C0 39.4274 0.368749 40.3176 1.02513 40.974C1.6815 41.6304 2.57174 41.9991 3.5 41.9991H38.5C39.4283 41.9991 40.3185 41.6304 40.9749 40.974C41.6312 40.3176 42 39.4274 42 38.4991V7.43663C41.9995 6.50867 41.6306 5.61888 40.9743 4.96288C40.3179 4.30688 39.428 3.93838 38.5 3.93838ZM39.375 38.5009C39.375 38.7326 39.2831 38.9549 39.1193 39.119C38.9556 39.283 38.7335 39.3754 38.5017 39.3759H3.5C3.26794 39.3759 3.04538 39.2837 2.88128 39.1196C2.71719 38.9555 2.625 38.7329 2.625 38.5009V7.43838C2.62546 7.20661 2.71786 6.9845 2.8819 6.82079C3.04594 6.65707 3.26824 6.56512 3.5 6.56513H9.1875V9.19013C9.18727 9.53822 9.32533 9.87215 9.5713 10.1185C9.81728 10.3648 10.151 10.5033 10.4991 10.5035C10.8472 10.5037 11.1812 10.3657 11.4275 10.1197C11.6738 9.87372 11.8123 9.53997 11.8125 9.19188V6.56513H19.6875V9.19013C19.6873 9.53822 19.8253 9.87215 20.0713 10.1185C20.3173 10.3648 20.651 10.5033 20.9991 10.5035C21.3472 10.5037 21.6812 10.3657 21.9275 10.1197C22.1738 9.87372 22.3123 9.53997 22.3125 9.19188V6.56513H30.1875V9.19013C30.1873 9.53822 30.3253 9.87215 30.5713 10.1185C30.8173 10.3648 31.151 10.5033 31.4991 10.5035C31.8472 10.5037 32.1812 10.3657 32.4275 10.1197C32.6738 9.87372 32.8123 9.53997 32.8125 9.19188V6.56513H38.5C38.7315 6.56559 38.9533 6.65774 39.117 6.82141C39.2806 6.98507 39.3728 7.20692 39.3733 7.43838L39.375 38.5009Z" fill="black"/>
</svg>
